<svg
  xmlns="http://www.w3.org/2000/svg"
  xmlns:xlink="http://www.w3.org/1999/xlink"
  viewBox="0 0 500 500"
  width="500"
  height="500"
  preserveAspectRatio="xMidYMid meet"
  style="width: 100%; height: 100%; transform: translate3d(0px, 0px, 0px); content-visibility: visible;"
>
  <defs>
    <clipPath id="__lottie_element_1359">
      <rect width="500" height="500" x="0" y="0"></rect>
    </clipPath>
  </defs>
  <g clip-path="url(#__lottie_element_1359)">
    <g transform="matrix(1,0,0,1,0,0)" opacity="1" style="display: block;">
      <g
        opacity="1"
        transform="matrix(7,0,0,7,75.00100708007812,63.8590087890625)"
      >
        <g opacity="1" transform="matrix(1,0,0,1,25,30.56399917602539)">
          <path
            stroke-linecap="butt"
            stroke-linejoin="miter"
            fill-opacity="0"
            stroke-miterlimit="10"
            stroke="rgb(129,129,225)"
            stroke-opacity="1"
            stroke-width="1"
            d=" M1.8580000400543213,5.064000129699707 C1.8580000400543213,5.064000129699707 -1.8580000400543213,5.064000129699707 -1.8580000400543213,5.064000129699707 C-1.8580000400543213,5.064000129699707 -1.8580000400543213,-5.064000129699707 -1.8580000400543213,-5.064000129699707 C-1.8580000400543213,-5.064000129699707 1.8580000400543213,-5.064000129699707 1.8580000400543213,-5.064000129699707 C1.8580000400543213,-5.064000129699707 1.8580000400543213,5.064000129699707 1.8580000400543213,5.064000129699707z"
          ></path>
        </g>
      </g>
      <g opacity="1" transform="matrix(7,0,0,7,75,63.85499572753906)">
        <g opacity="1" transform="matrix(1,0,0,1,25,25.5)">
          <path
            stroke-linecap="butt"
            stroke-linejoin="miter"
            fill-opacity="0"
            stroke-miterlimit="10"
            stroke="rgb(56,49,172)"
            stroke-opacity="1"
            stroke-width="1"
            d=" M6.546999931335449,10.128999710083008 C6.546999931335449,10.128999710083008 -6.546999931335449,10.128999710083008 -6.546999931335449,10.128999710083008 C-6.546999931335449,10.128999710083008 -4.254000186920166,-10.128999710083008 -4.254000186920166,-10.128999710083008 C-4.254000186920166,-10.128999710083008 4.255000114440918,-10.128999710083008 4.255000114440918,-10.128999710083008 C4.255000114440918,-10.128999710083008 6.546999931335449,10.128999710083008 6.546999931335449,10.128999710083008z"
          ></path>
        </g>
      </g>
      <g
        opacity="1"
        transform="matrix(7,0,0,7,74.99699401855469,63.858978271484375)"
      >
        <g opacity="1" transform="matrix(1,0,0,1,25,36.986000061035156)">
          <path
            stroke-linecap="butt"
            stroke-linejoin="miter"
            fill-opacity="0"
            stroke-miterlimit="10"
            stroke="rgb(56,49,172)"
            stroke-opacity="1"
            stroke-width="1"
            d=" M5.609000205993652,1.3569999933242798 C5.609000205993652,1.3569999933242798 -5.609000205993652,1.3569999933242798 -5.609000205993652,1.3569999933242798 C-5.609000205993652,1.3569999933242798 -5.609000205993652,-1.3569999933242798 -5.609000205993652,-1.3569999933242798 C-5.609000205993652,-1.3569999933242798 5.609000205993652,-1.3569999933242798 5.609000205993652,-1.3569999933242798 C5.609000205993652,-1.3569999933242798 5.609000205993652,1.3569999933242798 5.609000205993652,1.3569999933242798z"
          ></path>
        </g>
      </g>
    </g>
    <g
      transform="matrix(0.9346129298210144,0.35566648840904236,-0.35566648840904236,0.9346129298210144,127.76078033447266,-68.43423461914062)"
      opacity="1"
      style="display: block;"
    >
      <g
        opacity="1"
        transform="matrix(7,0,0,7,75.00100708007812,63.858001708984375)"
      >
        <g opacity="1" transform="matrix(1,0,0,1,0,0)">
          <path
            stroke-linecap="butt"
            stroke-linejoin="miter"
            fill-opacity="0"
            stroke-miterlimit="10"
            stroke="rgb(56,49,172)"
            stroke-opacity="1"
            stroke-width="1"
            d=" M25,13.420000076293945 C25,13.420000076293945 25,35.62799835205078 25,35.62799835205078"
          ></path>
        </g>
      </g>
      <g
        opacity="1"
        transform="matrix(7,0,0,7,75.00300598144531,63.85200500488281)"
      >
        <g opacity="1" transform="matrix(1,0,0,1,25,21.125)">
          <path
            fill="rgb(255,255,255)"
            fill-opacity="1"
            d=" M2.3420000076293945,0.0010000000474974513 C2.3420000076293945,-1.2929999828338623 1.2929999828338623,-2.3420000076293945 -0.0010000000474974513,-2.3420000076293945 C-1.2949999570846558,-2.3420000076293945 -2.3420000076293945,-1.2929999828338623 -2.3420000076293945,0.0010000000474974513 C-2.3420000076293945,1.2940000295639038 -1.2949999570846558,2.3420000076293945 -0.0010000000474974513,2.3420000076293945 C1.2929999828338623,2.3420000076293945 2.3420000076293945,1.2940000295639038 2.3420000076293945,0.0010000000474974513z"
          ></path>
          <path
            stroke-linecap="butt"
            stroke-linejoin="miter"
            fill-opacity="0"
            stroke-miterlimit="10"
            stroke="rgb(56,49,172)"
            stroke-opacity="1"
            stroke-width="1"
            d=" M2.3420000076293945,0.0010000000474974513 C2.3420000076293945,-1.2929999828338623 1.2929999828338623,-2.3420000076293945 -0.0010000000474974513,-2.3420000076293945 C-1.2949999570846558,-2.3420000076293945 -2.3420000076293945,-1.2929999828338623 -2.3420000076293945,0.0010000000474974513 C-2.3420000076293945,1.2940000295639038 -1.2949999570846558,2.3420000076293945 -0.0010000000474974513,2.3420000076293945 C1.2929999828338623,2.3420000076293945 2.3420000076293945,1.2940000295639038 2.3420000076293945,0.0010000000474974513z"
          ></path>
        </g>
      </g>
    </g>
  </g>
</svg>